<?xml version="1.0" encoding="utf-8"?>
<!-- Generator: Adobe Illustrator 24.0.1, SVG Export Plug-In . SVG Version: 6.00 Build 0)  -->
<svg version="1.1" id="Layer_1" xmlns="http://www.w3.org/2000/svg" x="0px" y="0px"
     viewBox="0 0 558.92 592.9" style="enable-background:new 0 0 558.92 592.9;" xml:space="preserve">
<style type="text/css">
	.st0{fill:#2B2B2B;}
	.st1{fill:#3E3D3D;}
	.st2{fill:#E1E1E3;}
	.st3{fill:#E2E2E4;}
	.st4{fill:#757574;}
	.st5{fill:#624240;}
	.st6{fill:#452F2D;}
	.st7{fill:#F8D840;}
	.st8{fill:#F6D640;}
	.st9{fill:#F6DF76;}
	.st10{fill:#D8D8DA;}
	.st11{fill:#B4CFE6;}
	.st12{fill:#F9E277;}
	.st13{fill:#D7D7D9;}
	.st14{fill:#DDDDDF;}
	.st15{fill:#B1CDE3;}
	.st16{fill:#EECF40;}
	.st17{fill:#EED974;}
	.st18{fill:#ADC7DC;}
</style>
    <g>
	<path class="st0" d="M87.32,261.86c-5.78,0.02-11.57,0.03-17.35,0.05c-1.94-0.01-3.87-0.03-5.81-0.04
		c-5.78,0.01-11.57,0.03-17.35,0.04c-1.94-0.01-3.87-0.03-5.81-0.04c-5.78,0.01-11.57,0.03-17.35,0.04
		c-1.94-0.02-3.87-0.04-5.81-0.06c-3.02-2-6.03-4-9.05-6c-0.37-1.53-0.75-3.06-1.12-4.59c2.28-8.21,4.16-9.84,12.47-10.79
		c1.56,0.01,3.12,0.03,4.67,0.04c6.16-0.01,12.32-0.03,18.48-0.04c1.56,0.01,3.12,0.03,4.68,0.04c5.77-0.01,11.54-0.02,17.31-0.03
		c1.95,0.02,3.9,0.03,5.85,0.05c8.78,1.62,15.46-0.94,21.72-7.87c11.22-12.43,23.42-23.98,35.47-35.64
		c2.34-2.27,5.82-3.36,8.77-4.99c1.94,0.01,3.88,0.02,5.82,0.02c5.78-0.01,11.56-0.03,17.33-0.04c1.94,0.01,3.88,0.03,5.82,0.04
		c5.78-0.01,11.56-0.03,17.34-0.04c1.94,0.01,3.88,0.03,5.82,0.04c5.78-0.01,11.56-0.03,17.34-0.04c0.9-1.09,1.81-2.18,2.71-3.27
		c0.54-3.32,1.08-6.64,1.65-10.17c-4.03,0-7.66,0-11.28,0c-1.94-0.01-3.88-0.02-5.82-0.04c-3.75-1.86-7.49-3.72-11.24-5.57
		c-0.37-0.94-0.74-1.89-1.11-2.83c-1.33-3.81-2.66-7.63-3.99-11.44c-0.68-1.56-1.36-3.12-2.04-4.68c-2.23-4.63-4.45-9.26-6.68-13.89
		c-0.47-0.78-0.94-1.56-1.41-2.33c-2.38-3.45-4.77-6.9-7.15-10.35c-1.09-1.26-2.19-2.52-3.28-3.77c-2.75-2.61-5.51-5.22-8.26-7.82
		c-1.54-1.16-3.08-2.31-4.62-3.47c-3.45-2.01-6.89-4.03-10.34-6.04c-0.86-0.44-1.72-0.87-2.58-1.31c-4.94-1.85-9.88-3.7-14.83-5.55
		c-1.49-0.51-2.98-1.02-4.46-1.53c-3.45-1.41-6.9-2.83-10.35-4.24c-0.74-1.16-1.47-2.31-2.21-3.47
		c-1.26-10.96,3.41-15.4,14.66-13.92c1.55,0.42,3.1,0.84,4.64,1.26c4.19,1.42,8.38,2.85,12.57,4.27c0.82,0.28,1.64,0.57,2.46,0.85
		c4.64,2.16,9.28,4.31,13.93,6.47c1.16,0.72,2.32,1.44,3.48,2.16c3.02,2.02,6.04,4.05,9.06,6.07c1.03,0.83,2.06,1.65,3.09,2.48
		c2.82,2.65,5.64,5.3,8.46,7.95c1.07,1.19,2.13,2.37,3.2,3.56c2.75,3.67,5.51,7.33,8.26,11c0.37,0.55,0.75,1.11,1.12,1.66
		c2.13,3.82,4.25,7.64,6.38,11.46c0.64,1.18,1.27,2.36,1.91,3.54c1.62,3.84,3.25,7.68,4.87,11.52c1.14,2.24,2.29,4.47,3.43,6.71
		c4.6,0.06,9.22-0.09,13.79,0.26c3.2,0.24,4.51-1.3,6.21-3.72c5.06-7.18,10.41-14.19,16.05-20.93c3.12-3.73,7.03-6.79,10.83-10.38
		c-3.58-1.84-6.62-3.4-9.67-4.96c-1.23-0.84-2.46-1.69-3.69-2.53c-2.68-2.43-5.37-4.86-8.05-7.3c-0.65-0.81-1.31-1.61-1.96-2.42
		c-2-4.23-4-8.46-6-12.7c-0.22-1.53-0.44-3.06-0.66-4.59c0.53-6.16,1.05-12.33,1.58-18.49c1.26-3.06,2.51-6.12,3.77-9.18
		c3.99-4.93,7.97-9.87,12.13-15.01c-3.25-2.37-6.61-4.82-9.96-7.27c-1.19-0.98-2.38-1.96-3.57-2.95c-2.98-2.09-5.95-4.18-8.93-6.27
		c-2.04-1.08-4.07-2.15-6.11-3.23c-4.24-1.14-8.48-2.27-12.72-3.41c-1.87-0.23-3.73-0.46-5.6-0.69c-4.54-0.3-9.09-0.61-13.63-0.91
		c-1.19-0.73-2.37-1.46-3.56-2.19c-2.85-3.97-4.27-8.18-1.77-12.84c2.65-4.94,7.18-5.6,12.27-5.58
		c19.83,0.08,37.82,5.23,53.07,18.44c1.29,1.12,2.81,1.97,4.22,2.95c0.81,0.62,1.63,1.24,2.44,1.87c3,2.34,6,4.69,9.01,7.03
		c1.02,0.82,2.04,1.65,3.06,2.47c4.7,6.12,11.16,2.64,16.89,3.08c1.93,0.01,3.87,0.03,5.8,0.04c5.79-0.01,11.57-0.03,17.36-0.04
		c1.93,0.08,3.86,0.16,5.78,0.23c1.66-0.65,3.57-0.98,4.93-2.01c8.3-6.29,16.47-12.74,24.69-19.12
		c15.43-11.97,33.34-15.32,52.28-14.81c5.39,0.14,9.41,4.5,9.72,9.65c0.36,6.08-3.13,9.85-10.54,11.4
		c-1.94,0.02-3.88,0.04-5.83,0.06c-7.33,1.46-14.65,2.92-21.98,4.38c-9.84,6.41-19.68,12.83-30.13,19.63c3.13,2.7,5,4.31,6.87,5.93
		c2.2,3.1,4.4,6.2,6.6,9.3c0.57,1.09,1.15,2.18,1.72,3.27c1.18,4.24,2.35,8.48,3.53,12.72c0.2,2.33,0.4,4.67,0.59,7
		c-1.29,19.76-13.5,31.01-31.01,38.91c2.55,2.09,4.73,3.87,6.9,5.65c0.77,0.69,1.54,1.39,2.31,2.08c2.41,2.56,4.82,5.13,7.23,7.69
		c1.02,1.21,2.04,2.41,3.06,3.62c2.37,3.46,4.73,6.92,7.1,10.38c0.65,1.2,1.3,2.39,1.95,3.59c2.01,1.84,18.14,3.18,19.89,1.53
		c0.65-0.61,0.87-1.68,1.29-2.54c5.54-11.28,11.08-22.55,16.62-33.83c9.24-9.06,18.47-18.12,27.71-27.18
		c10.37-4.85,20.74-9.71,31.11-14.56c2.7-0.76,5.4-1.52,8.1-2.28c4.13,0.42,8.26,0.83,12.39,1.25c1.19,1.69,2.38,3.38,3.57,5.07
		c0.52,8.6-1.82,11.9-9.86,14.21c-3.64,1.04-7.21,2.33-10.81,3.51c-3.08,1.17-6.16,2.33-9.24,3.5
		c-21.05,8.36-35.12,23.69-44.02,44.16c-1.48,3.49-2.96,6.97-4.44,10.46c-0.95,2.28-2.01,4.53-2.83,6.86
		c-4.21,11.91-4.73,12.32-16.94,13.03c-4.57,0-9.14,0-13.78,0c0.44,4.02,0.75,7.83,1.35,11.58c0.11,0.72,1.31,1.26,2.01,1.88
		c5.78-0.01,11.56-0.03,17.34-0.04c1.94,0.01,3.88,0.03,5.82,0.04c5.78-0.01,11.56-0.03,17.34-0.04c1.94,0.01,3.88,0.03,5.82,0.04
		c5.78-0.01,11.56-0.03,17.34-0.04c2.32,0.02,4.65,0.04,6.97,0.06c3.09,1.61,6.17,3.22,9.26,4.82c1.16,1.16,2.31,2.31,3.47,3.47
		c2.7,2.7,5.41,5.41,8.11,8.11c1.16,1.16,2.31,2.31,3.47,3.47c2.7,2.7,5.4,5.41,8.11,8.11c1.16,1.16,2.31,2.31,3.47,3.47
		c2.7,2.7,5.4,5.41,8.1,8.11c1.16,1.16,2.32,2.32,3.47,3.47c2.88,4.99,7.16,6.67,12.71,5.38c1.95,0.01,3.9,0.03,5.85,0.04
		c6.16-0.01,12.31-0.03,18.47-0.04c1.56,0.01,3.13,0.03,4.69,0.04c6.16-0.01,12.31-0.03,18.47-0.04c1.56,0.01,3.13,0.03,4.69,0.04
		c4.11,0.56,8.22,1.13,12.33,1.69c1.27,1.52,2.54,3.03,3.81,4.55c1.4,10.75-2.22,14.81-13.29,14.92c-1.34,0.01-2.69,0.15-4.03,0.22
		c-1.94-0.01-3.87-0.03-5.81-0.04c-5.78,0.01-11.57,0.03-17.35,0.04c-1.94-0.01-3.87-0.03-5.81-0.04
		c-5.78,0.01-11.57,0.03-17.35,0.04c-1.94-0.01-3.87-0.03-5.81-0.04c-5.39-0.46-10.79-0.91-16.18-1.37
		c-0.46-0.34-0.93-0.69-1.39-1.03c-3.09-3.07-6.17-6.15-9.26-9.22c-1.12-1.12-2.24-2.24-3.36-3.36c-2.74-2.74-5.48-5.48-8.21-8.22
		c-1.12-1.12-2.24-2.24-3.36-3.37c-2.74-2.74-5.48-5.48-8.22-8.21c-1.12-1.12-2.24-2.24-3.36-3.36c-3.08-3.06-6.17-6.11-9.25-9.17
		c-1.34-0.47-2.69-1.34-4.03-1.35c-7.89-0.07-15.79,0.07-23.68,0.13c-5.79,0.01-11.57,0.03-17.36,0.04c-2.56,0-5.12,0-8.73,0
		c2.55,2.36,4.43,4.08,6.3,5.81c2.27,2.25,4.55,4.5,6.82,6.75c5.46,5.45,10.92,10.89,16.38,16.34c2.69,2.74,5.38,5.48,8.06,8.22
		c0.69,0.71,1.38,1.42,2.07,2.13c2.89,3.01,5.79,6.02,8.68,9.03c1.1,1.16,2.2,2.32,3.31,3.48c2.62,2.76,5.23,5.53,7.85,8.29
		c1.17,1.25,2.34,2.49,3.51,3.74c2.39,2.57,4.77,5.15,7.16,7.72c1.5,1.64,2.99,3.28,4.49,4.92c2.35,2.61,4.7,5.23,7.05,7.84
		c1.12,1.24,2.25,2.47,3.37,3.71c2.31,2.64,4.63,5.27,6.94,7.91c1.03,1.2,2.05,2.41,3.08,3.61c2.57,3.02,5.13,6.04,7.7,9.06
		c1.43,1.64,2.86,3.29,4.29,4.93c2.07,2.6,4.14,5.2,6.2,7.8c1.39,1.68,2.78,3.36,4.17,5.04c2.04,2.57,4.08,5.14,6.12,7.71
		c0.93,1.22,1.86,2.44,2.79,3.66c2.77,3.67,5.53,7.33,8.3,11c0.81,1.06,1.62,2.12,2.43,3.17c2.05,2.93,4.09,5.87,6.14,8.8
		c1.1,1.56,2.21,3.13,3.31,4.69c2.03,3.07,4.05,6.13,6.08,9.2c1.05,1.59,2.1,3.18,3.15,4.77c1.93,3.06,3.86,6.11,5.79,9.17
		c0.69,1.18,1.39,2.36,2.08,3.53c2.11,3.83,4.22,7.65,6.33,11.48c0.69,1.16,1.38,2.33,2.07,3.49c2.19,4.53,4.38,9.06,6.57,13.59
		c0.44,0.9,0.89,1.79,1.33,2.69c1.57,3.85,3.15,7.7,4.72,11.56c0.74,2.07,1.48,4.14,2.22,6.21c1.12,3.75,2.25,7.49,3.37,11.24
		c0.4,1.52,0.81,3.05,1.21,4.57c0.86,5,1.71,9.99,2.57,14.99c0.11,1.94,0.23,3.88,0.34,5.81c-0.09,5.78-0.19,11.56-0.28,17.34
		c-0.36,2.32-0.71,4.64-1.07,6.96c-3.38,8.93-6.75,17.86-10.13,26.79c-10.2,17.05-24.4,30.12-40.85,40.94
		c-3.9-0.96-7.81-1.92-11.72-2.89c-0.76-1.16-1.52-2.33-2.28-3.49c-1.73-3.55-3.47-7.1-5.2-10.65c-0.8-1.52-1.6-3.04-2.4-4.56
		c-1.97-3.87-3.93-7.73-5.9-11.6c-0.84-1.62-1.69-3.23-2.53-4.85c-1.66-3.34-3.32-6.68-4.98-10.02c-0.64-1.18-1.28-2.37-1.93-3.55
		c-2.26-4.51-4.53-9.03-6.79-13.54c-0.47-0.88-0.94-1.76-1.41-2.64c-1.95-3.86-3.9-7.71-5.85-11.57c-0.78-1.56-1.57-3.12-2.35-4.67
		c-1.55-3.06-3.1-6.13-4.65-9.19c-0.8-1.54-1.6-3.09-2.39-4.63c-1.93-3.86-3.86-7.71-5.79-11.57c-0.61-1.2-1.21-2.4-1.82-3.6
		c-2.31-4.58-4.63-9.15-6.94-13.73c-0.44-0.82-0.88-1.65-1.32-2.47c-1.95-3.86-3.91-7.71-5.86-11.57c-0.81-1.58-1.61-3.16-2.42-4.74
		c-1.67-3.4-3.33-6.8-5-10.19c-0.66-1.17-1.33-2.34-1.99-3.51c-2.24-4.46-4.48-8.92-6.71-13.38c-0.49-0.94-0.97-1.87-1.46-2.81
		c-1.94-3.85-3.88-7.71-5.82-11.56c-0.59-1.22-1.18-2.44-1.78-3.65c-1.97-3.86-3.94-7.73-5.9-11.59c-0.84-1.61-1.67-3.22-2.51-4.83
		c-1.66-3.34-3.33-6.69-4.99-10.03c-0.64-1.18-1.29-2.37-1.93-3.55c-2.26-4.52-4.53-9.04-6.79-13.56c-0.47-0.88-0.94-1.76-1.41-2.63
		c-1.95-3.86-3.89-7.71-5.84-11.57c-0.53-1.15-1.07-2.3-1.6-3.45c-7.9-15.47-15.8-30.94-23.7-46.4c-1.94-3.86-3.89-7.72-5.83-11.57
		c-0.8-1.59-1.61-3.17-2.41-4.76c-1.67-3.39-3.33-6.79-5-10.18c-0.94-1.81-1.88-3.62-2.82-5.42c-0.64-1.34-1.27-2.67-1.92-4.04
		c-6.57,5.95-12.85,11.64-19.03,17.23c5.44,4.83,10.71,9.51,15.98,14.2c1.48,1.65,2.97,3.3,4.45,4.95c2,2.6,3.99,5.19,5.99,7.79
		c0.82,1.17,1.63,2.34,2.45,3.5c7.13,14.34,14.25,28.68,21.38,43.02c0.53,1.48,1.06,2.96,1.59,4.44c1.23,4.24,2.47,8.48,3.7,12.73
		c0.45,1.61,0.91,3.22,1.36,4.82c1.06,4.57,2.12,9.14,3.18,13.71c0.34,1.55,0.67,3.09,1.01,4.64c0.74,5.02,1.47,10.04,2.21,15.06
		c0.16,1.94,0.32,3.87,0.48,5.81c0.32,5,0.64,10,0.97,15.01c0.06,2.33,0.13,4.66,0.19,6.99c-0.14,5.78-0.28,11.56-0.41,17.34
		c-0.3,2.32-0.6,4.64-0.9,6.96c-1.27,6.94-2.53,13.89-3.8,20.83c-0.72,2.7-1.44,5.4-2.16,8.1c-3.39,8.98-6.79,17.96-10.18,26.94
		c-1.7,3.73-3.41,7.46-5.11,11.19c-10.34,18.94-22.11,36.89-36.32,53.18c-4.48,4.48-8.95,8.96-13.43,13.45
		c-5.74,4.06-11.48,8.12-17.21,12.18c-2.32,0-4.63,0-6.95,0c-8.85-6.96-17.71-13.91-26.56-20.87c-1.52-1.65-3.04-3.3-4.56-4.95
		c-2.25-2.64-4.51-5.28-6.76-7.91c-1.25-1.54-2.5-3.09-3.75-4.63c-1.95-2.65-3.89-5.3-5.84-7.96c-1.14-1.6-2.28-3.19-3.41-4.79
		c-1.95-3.04-3.9-6.07-5.85-9.11c-0.73-1.17-1.46-2.34-2.2-3.5c-2.09-3.84-4.18-7.68-6.26-11.52c-0.65-1.17-1.31-2.33-1.96-3.5
		c-1.82-3.9-3.64-7.81-5.47-11.71c-0.83-1.98-1.67-3.97-2.5-5.95c-1.51-3.92-3.02-7.85-4.53-11.77c-0.32-1.03-0.64-2.06-0.96-3.09
		c-1.32-4.59-2.64-9.19-3.97-13.78c-0.39-1.55-0.78-3.09-1.17-4.64c-0.82-5.01-1.64-10.02-2.47-15.04
		c-0.28-1.55-0.56-3.09-0.83-4.64c-0.27-5.39-0.54-10.77-0.82-16.16c0.05-2.35,0.11-4.7,0.16-7.05c0.26-5.78,0.51-11.56,0.77-17.35
		c0.25-2.31,0.51-4.63,0.76-6.94c1.08-6.63,2.16-13.26,3.24-19.89c0.49-2.63,0.98-5.26,1.47-7.9c2.26-7.86,4.53-15.71,6.79-23.57
		c0.97-2.9,1.93-5.81,2.9-8.71c7.28-17.62,16.01-34.44,27.54-49.71c5.44-5.45,10.88-10.9,16.31-16.35c1.5-1.06,2.99-2.12,4.49-3.18
		c0.02-0.59,0.03-1.18,0.05-1.76c-0.42-0.31-0.83-0.63-1.25-0.94c-3.11-2.69-6.23-5.37-9.34-8.06c-2.39-2.53-4.78-5.06-7.62-8.07
		c-4.36,9.07-8.26,17.2-12.17,25.34c-5.92,11.55-11.84,23.09-17.76,34.64c-8.03,15.89-16.06,31.78-24.08,47.67
		c-1.9,3.82-3.81,7.63-5.71,11.45c-5.71,11.22-11.41,22.44-17.12,33.67c-2.32,4.63-4.65,9.27-6.97,13.9
		c-5.94,11.6-11.87,23.2-17.81,34.8c-1.88,3.8-3.77,7.59-5.65,11.39c-6.09,12.01-12.19,24.02-18.28,36.04
		c-1.93,3.85-3.86,7.69-5.78,11.54c-5.95,11.6-11.89,23.21-17.84,34.81c-1.89,3.79-3.78,7.58-5.67,11.37
		c-3.79,7.29-7.56,14.59-11.39,21.86c-4.25,8.07-10.47,9.41-17.93,3.95c-3.24-2.37-6.5-4.7-9.75-7.05
		c-0.99-0.84-1.97-1.69-2.96-2.53c-2.83-2.65-5.65-5.3-8.48-7.95c-1.51-1.64-3.01-3.28-4.52-4.92c-2.02-2.6-4.03-5.2-6.05-7.8
		c-1.09-1.6-2.17-3.21-3.26-4.81c-1.85-3.47-3.7-6.93-5.55-10.4c-0.5-1.11-1.01-2.21-1.51-3.32c-1.55-4.25-3.1-8.49-4.65-12.74
		c-0.13-1.98-0.25-3.96-0.38-5.94c-0.41-4.96-0.81-9.91-1.22-14.87c0.05-2.34,0.11-4.67,0.16-7.01c0.89-6.55,1.78-13.11,2.67-19.66
		c0.7-2.71,1.4-5.41,2.11-8.12c3.25-8.88,6.5-17.77,9.75-26.65c1.84-3.85,3.67-7.69,5.51-11.54c7.94-13.46,15.88-26.92,23.82-40.38
		c4.54-6.56,9.07-13.11,13.61-19.67c14.94-18.4,29.08-37.51,44.98-55.03c26.69-29.41,54.5-57.82,81.84-86.64
		c2.77-2.92,5.58-5.82,8.37-8.72c0.28-0.35,0.57-0.69,0.85-1.03c-0.33-0.07-0.67-0.13-1-0.2c-1.53,0.01-3.07,0.02-4.6,0.03
		c-1.94-0.01-3.88-0.03-5.82-0.04c-5.78,0.01-11.56,0.03-17.34,0.04c-1.94-0.01-3.88-0.03-5.82-0.04
		c-11.56-1.8-20.61,1.15-28.74,10.65c-11.1,12.98-24,24.42-36.12,36.53C91.94,260.95,89.63,261.41,87.32,261.86z M267.39,250.43
		c2.43,1.52,4.87,3.03,7.3,4.55c2,0.63,3.99,1.26,5.99,1.89c5.85-3.52,12.16-6.48,17.46-10.69c10.86-8.62,20.47-18.49,25.54-31.86
		c3.85-6.88,5.19-14.25,4.43-22.06c-0.18-1.98-0.37-3.97-0.55-5.95c-1.22-4.24-2.44-8.49-3.66-12.73c-0.88-1.9-1.76-3.81-2.65-5.71
		c-7.75-14.69-18.12-27.01-33.01-34.83c-3.3-1.73-7.51-1.71-11.3-2.5c-2.66,1.02-5.53,1.67-7.94,3.1
		c-13.99,8.35-24.97,19.75-32.04,34.4c-2.93,6.07-4.02,13.02-5.95,19.57c-0.06,1.93-0.13,3.86-0.19,5.79
		c1.04,5.69,2.08,11.37,3.12,17.05c0.37,0.93,0.75,1.86,1.12,2.79c2.36,4.06,4.73,8.12,7.09,12.18c3.26,3.96,6.53,7.92,9.79,11.88
		c0.95,0.86,1.91,1.71,2.86,2.57c3.13,2.7,6.26,5.39,9.39,8.09C265.27,248.8,266.33,249.62,267.39,250.43z M367.7,282.57
		c0.64,1.18,1.28,2.37,1.92,3.55c2.27,4.52,4.53,9.04,6.8,13.55c0.47,0.88,0.94,1.76,1.41,2.64c1.95,3.86,3.9,7.71,5.85,11.57
		c0.78,1.56,1.57,3.12,2.35,4.68c1.68,3.44,3.36,6.87,5.05,10.31c0.66,1.16,1.33,2.33,1.99,3.49c1.93,3.86,3.86,7.72,5.79,11.59
		c0.61,1.2,1.21,2.39,1.82,3.59c2.32,4.58,4.63,9.15,6.95,13.73c0.44,0.82,0.88,1.65,1.31,2.47c1.95,3.86,3.91,7.72,5.86,11.58
		c0.81,1.58,1.61,3.16,2.42,4.74c1.67,3.39,3.34,6.79,5,10.18c0.66,1.17,1.32,2.34,1.98,3.51c2.24,4.46,4.48,8.91,6.72,13.37
		c0.49,0.94,0.97,1.88,1.46,2.82c1.73,3.55,3.47,7.1,5.2,10.65c0.8,1.52,1.61,3.05,2.41,4.57c1.96,3.87,3.93,7.73,5.89,11.6
		c0.84,1.61,1.68,3.21,2.51,4.82c1.66,3.34,3.33,6.69,4.99,10.03c0.64,1.18,1.28,2.36,1.92,3.55c2.26,4.51,4.53,9.03,6.79,13.54
		c0.47,0.88,0.94,1.77,1.42,2.65c1.95,3.86,3.9,7.71,5.84,11.57c0.78,1.56,1.57,3.11,2.35,4.67c1.55,3.07,3.1,6.13,4.65,9.2
		c0.79,1.54,1.59,3.08,2.38,4.61c2.58,5.09,5.16,10.17,7.73,15.26c2.26,4.53,4.53,9.07,6.79,13.6c0.45,0.84,0.9,1.68,1.36,2.52
		c1.96,3.86,3.91,7.72,5.87,11.58c0.54,1.13,1.08,2.25,1.62,3.38c1.45,3.06,2.89,6.12,4.5,9.51c12.73-10.88,23.49-22.32,27.81-38.43
		c0.68-2.72,1.36-5.43,2.05-8.15c0.38-6.17,0.76-12.34,1.14-18.51c-0.21-1.97-0.42-3.95-0.64-5.92c-0.88-4.59-1.76-9.19-2.65-13.78
		c-0.42-1.54-0.84-3.09-1.27-4.63c-4.58-11.24-9.16-22.48-13.74-33.72c-1.98-3.81-3.95-7.61-5.93-11.42
		c-0.71-1.18-1.42-2.36-2.13-3.54c-2.02-3.45-4.04-6.91-6.06-10.36c-1.07-1.64-2.14-3.28-3.2-4.92c-1.96-3-3.93-6-5.89-9
		c-1.11-1.66-2.22-3.32-3.33-4.98c-2.09-2.96-4.18-5.92-6.26-8.87c-0.91-1.22-1.82-2.45-2.72-3.67c-2.74-3.67-5.49-7.34-8.23-11.01
		c-0.82-1.03-1.64-2.07-2.46-3.1c-2.32-2.99-4.63-5.99-6.95-8.98c-1.22-1.52-2.44-3.04-3.66-4.55c-2.26-2.72-4.52-5.45-6.79-8.17
		c-0.64-0.8-1.29-1.59-1.93-2.39c-2.89-3.42-5.79-6.84-8.68-10.25c-1.1-1.25-2.21-2.5-3.31-3.76c-2.29-2.64-4.58-5.28-6.88-7.92
		c-0.97-1.13-1.95-2.26-2.92-3.39c-2.87-3.13-5.73-6.26-8.6-9.39c-0.71-0.77-1.42-1.55-2.12-2.32c-2.79-3.07-5.58-6.14-8.37-9.21
		c-1.12-1.17-2.24-2.34-3.37-3.51c-2.85-3.03-5.69-6.06-8.54-9.09c-1.12-1.17-2.24-2.34-3.36-3.51c-2.64-2.74-5.27-5.48-7.91-8.22
		c-1.18-1.2-2.36-2.4-3.55-3.6c-2.64-2.68-5.29-5.35-7.93-8.03c-1.2-1.23-2.39-2.46-3.59-3.68c-10.31-10.21-20.61-20.43-30.92-30.64
		c-0.54,0.07-1.08,0.15-1.62,0.22c-0.14,2.99-1.37,6.49-0.24,8.88c5.76,12.15,12.12,24.01,18.27,35.98c0.85,1.61,1.7,3.22,2.55,4.83
		C364.37,275.89,366.04,279.23,367.7,282.57z M330.57,328.86c-0.79-1.54-1.58-3.07-2.37-4.61c-1.93-3.47-3.87-6.95-5.8-10.42
		c-1.09-1.69-2.18-3.39-3.27-5.08c-6.72-7.52-13.03-15.49-20.31-22.43c-5.44-5.19-12.42-8.28-20.42-7.6
		c-8.65,0.07-15.41,4.54-21.51,9.9c-12.66,11.12-21.86,24.81-28.6,40.19c-1.49,3.48-2.98,6.96-4.46,10.45
		c-0.72,2.33-1.44,4.66-2.16,6.98c-0.86,1.66-1.99,3.24-2.54,4.99c-7.48,23.63-11.73,47.77-11.36,72.63
		c1.52,12.74,3.03,25.47,4.55,38.21c0.29,1.17,0.58,2.35,0.87,3.52c1.37,4.6,2.74,9.19,4.11,13.79c0.67,1.55,1.34,3.11,2,4.66
		c1.58,3.85,3.16,7.71,4.74,11.56c0.73,1.55,1.47,3.1,2.2,4.65c1.97,3.31,3.93,6.63,5.9,9.94c0.27,1.1,0.3,2.35,0.84,3.28
		c11.17,19.08,23.8,37.01,40.67,51.6c5.16,6.18,5.98,6.5,11.14,1.06c8.34-8.77,16.9-17.46,24.19-27.07
		c6.79-8.94,12.05-19.04,17.99-28.64c4.66-9.96,9.33-19.92,13.99-29.88c1.05-3.09,2.1-6.19,3.15-9.28
		c1.69-7.33,3.38-14.66,5.07-21.99c0.31-2.31,0.62-4.63,0.93-6.94c0.38-6.15,0.75-12.31,1.13-18.46
		c-0.74-10.91-0.45-22.02-2.47-32.69c-2.87-15.17-7.43-30.01-11.27-44.99C335.19,340.44,332.88,334.65,330.57,328.86z M71.76,518.66
		l-0.08-0.08c7.98-15.74,15.96-31.48,23.94-47.22c1.93-3.85,3.86-7.7,5.79-11.56c6-11.67,12-23.34,18-35.01
		c2.04-4.18,4.07-8.37,6.11-12.55c5.9-11.58,11.8-23.17,17.7-34.75c1.91-3.82,3.82-7.64,5.73-11.46
		c5.99-11.69,11.99-23.38,17.98-35.07c2.04-4.17,4.07-8.33,6.11-12.5c5.93-11.6,11.86-23.19,17.79-34.79
		c1.89-3.8,3.78-7.6,5.66-11.41c6.09-12.01,12.19-24.02,18.28-36.03c1.02-3.09,2.04-6.18,3.06-9.26c-0.72-1.51-1.43-3.03-2.02-4.26
		c-18.99,18.78-37.96,37.12-56.43,55.95c-11.45,11.68-22.16,24.09-33.2,36.17c-10.77,12.74-21.53,25.47-32.3,38.21
		c-3.37,4.16-7.01,8.13-10.05,12.51c-11.01,15.88-21.81,31.9-32.69,47.87c-2.61,4.62-5.22,9.25-7.84,13.87
		c-1.19,2.26-2.38,4.51-3.57,6.77c-9.58,17.12-16.1,35.24-18.12,54.85c-0.06,2.24-0.12,4.47-0.18,6.71
		c0.42,5.4,0.83,10.79,1.25,16.19c0.39,1.55,0.78,3.11,1.18,4.66c1.71,4.31,3.42,8.62,5.12,12.93c0.89,1.52,1.79,3.04,2.68,4.56
		c2.25,3.09,4.51,6.17,6.76,9.26c1.16,1.29,2.33,2.57,3.49,3.86c3.09,3.51,6.19,7.02,9.99,11.34
		C59.13,543.97,65.44,531.32,71.76,518.66z M244.7,93.9c0.62,1.15,0.95,2.68,1.89,3.39c10.47,7.89,22.71,11.58,35.42,11
		c7.95-0.36,15.96-3.78,23.49-6.94c3.87-1.62,6.73-5.66,10.04-8.61c1.46-2,3.77-3.81,4.26-6.02c2.76-12.53-6.88-27.12-19.74-28.56
		c-11.76-1.32-23.74-1.57-35.58-1.14c-11.43,0.41-19.75,6.55-24.35,17.27C236.81,81.98,238.89,90.94,244.7,93.9z"/>
        <path class="st1" d="M207.77,423.88c-0.37-24.86,3.88-49.01,11.36-72.63c0.56-1.76,1.68-3.33,2.54-4.99
		c4.59,0.52,9.17,1.04,13.76,1.56c1.97,0.26,3.93,0.52,5.9,0.78c5,0.45,9.99,0.91,14.99,1.36c1.96,0.24,3.91,0.49,5.87,0.73
		c5.78,0.07,11.57,0.13,17.35,0.2c1.93,0.01,3.86,0.02,5.79,0.03c8.1-0.44,16.21-0.87,24.31-1.31c0.32,0.18,0.66,0.31,1.02,0.4
		c0.2,1.72,0.24,3.47,0.61,5.14c5.4,24.48,7.58,49.29,7.56,74.31c-2.29,0.47-4.58,0.95-6.87,1.42c-6.17,0.45-12.33,0.9-18.5,1.35
		c-2.28,0.08-4.56,0.17-6.84,0.25c-5.43-0.03-10.87-0.05-16.3-0.08c-1.94-0.09-3.89-0.18-5.83-0.27
		c-5.39-0.38-10.79-0.77-16.18-1.15c-1.52-0.13-3.03-0.26-4.55-0.39C231.75,428.36,219.76,426.12,207.77,423.88z"/>
        <path class="st2" d="M214.77,236.26c-6.09,12.01-12.19,24.02-18.28,36.03c-2.16,1.43-4.63,2.55-6.42,4.34
		c-44.2,44.08-88.31,88.25-132.51,132.33c-1.82,1.81-4.26,3-6.41,4.48c10.88-15.97,21.68-31.99,32.69-47.87
		c3.04-4.39,6.68-8.35,10.05-12.51c2.03-1.27,4.39-2.21,6.04-3.86c36.33-36.21,72.58-72.51,108.9-108.73
		C210.53,238.78,212.78,237.65,214.77,236.26z"/>
        <path class="st3" d="M190.82,283.69c-5.93,11.6-11.86,23.19-17.79,34.79c-1.98,1.4-4.22,2.54-5.91,4.23
		c-40.46,40.37-80.85,80.81-121.34,121.14c-1.89,1.89-4.67,2.89-7.03,4.3c0.33-4.69,0.66-9.38,0.99-14.08
		c1.19-2.26,2.38-4.51,3.57-6.77c1.99-1.4,4.23-2.55,5.93-4.24C94.3,378.1,139.3,333.06,184.37,288.1
		C186.18,286.29,188.66,285.15,190.82,283.69z"/>
        <path class="st4" d="M318.83,429.47c0.02-25.03-2.15-49.83-7.56-74.32c-0.37-1.68-0.41-3.43-0.61-5.14
		c8.95-1.26,17.89-2.53,26.84-3.79c3.84,14.98,8.41,29.83,11.27,44.99c2.02,10.67,1.73,21.78,2.47,32.69
		c-1.51,0.41-3.02,0.81-4.53,1.22c-2.67,0.56-5.35,1.12-8.02,1.69c-6.61,1.07-13.22,2.15-19.82,3.22L318.83,429.47z"/>
        <path class="st3" d="M166.92,330.98c-5.99,11.69-11.99,23.38-17.98,35.07c-2.01,1.32-4.32,2.34-5.99,4
		c-31.92,31.8-63.76,63.68-95.64,95.53c-1.62,1.62-3.42,3.06-5.14,4.59c-0.78-5.02-1.56-10.04-2.34-15.06
		c1.72-1.52,3.53-2.96,5.16-4.58c38.32-38.29,76.6-76.61,114.97-114.85C161.91,333.74,164.58,332.53,166.92,330.98z"/>
        <path class="st1" d="M273.65,565.11c-16.87-14.59-29.5-32.52-40.67-51.6c-0.55-0.94-0.57-2.18-0.84-3.28
		c1.09-0.03,2.17-0.06,3.26-0.09c1.98,0.2,3.96,0.4,5.93,0.6c4.98,0.49,9.97,0.98,14.95,1.46c1.97,0.2,3.94,0.41,5.91,0.61
		c5.78,0.07,11.57,0.15,17.35,0.22c1.93-0.01,3.86-0.02,5.79-0.03c5.07-0.02,10.14-0.03,15.21-0.05c-0.41,1.66-0.49,3.49-1.27,4.95
		C290.79,533.67,282.2,549.38,273.65,565.11z"/>
        <path class="st5" d="M315.53,92.74c-3.31,2.95-6.17,6.99-10.04,8.61c-7.52,3.15-15.54,6.57-23.49,6.94
		c-12.71,0.58-24.94-3.11-35.42-11c-0.94-0.71-1.27-2.24-1.89-3.39c4.67-13.45,13.31-19.73,27.16-19.74c5.98,0,11.96-0.02,17.94,0
		C301.71,74.21,311.5,81.29,315.53,92.74z"/>
        <path class="st2" d="M143.21,377.5c-5.9,11.58-11.8,23.17-17.7,34.75c-1.84,1.28-3.93,2.32-5.5,3.88
		c-19.83,19.72-39.6,39.5-59.35,59.3c-3.94,3.95-7.71,8.07-11.55,12.1c-1.93-3.48-3.86-6.96-5.79-10.44c0-1.16,0.01-2.31,0.01-3.47
		c1.98-1.41,4.21-2.56,5.91-4.26c29.35-29.24,58.61-58.57,87.97-87.81C138.89,379.9,141.2,378.85,143.21,377.5z"/>
        <path class="st6" d="M315.53,92.74c-4.03-11.45-13.82-18.53-25.73-18.57c-5.98-0.02-11.96-0.01-17.94,0
		c-13.85,0.01-22.49,6.29-27.16,19.74c-5.81-2.96-7.89-11.92-4.59-19.62c4.61-10.72,12.93-16.86,24.35-17.27
		c11.84-0.43,23.82-0.18,35.58,1.14c12.86,1.44,22.51,16.03,19.74,28.56C319.3,88.93,317,90.74,315.53,92.74z"/>
        <path class="st7" d="M235.39,510.14c-1.09,0.03-2.17,0.06-3.26,0.09c-1.97-3.32-3.93-6.63-5.9-9.94c0.77-0.57,1.62-1.05,2.29-1.72
		c20.86-20.83,41.71-41.66,62.51-62.54c1.03-1.03,1.62-2.51,2.41-3.78c6.17-0.45,12.33-0.9,18.5-1.35c-1.28,1.83-2.33,3.9-3.88,5.46
		c-22.76,22.86-45.6,45.65-68.38,68.49C238.1,506.44,236.82,508.36,235.39,510.14z"/>
        <path class="st8" d="M251.96,237.33c-3.26-3.96-6.53-7.92-9.79-11.88c1.44-1.77,2.72-3.7,4.33-5.3
		c17.15-17.04,34.35-34.04,51.53-51.04c1.19,6.17,2.38,12.34,3.56,18.52c-0.03,0.39-0.07,0.78-0.1,1.17
		c-1.85,1.67-3.76,3.28-5.54,5.03C281.27,208.31,266.62,222.82,251.96,237.33z"/>
        <path class="st4" d="M273.65,565.11c8.56-15.73,17.14-31.44,25.62-47.21c0.78-1.46,0.87-3.29,1.27-4.95
		c0.35-0.19,0.7-0.39,1.05-0.58c2.69-0.2,5.37-0.39,8.06-0.59c5.77-0.44,11.55-0.88,17.32-1.32c-5.94,9.59-11.2,19.69-17.99,28.64
		c-7.3,9.61-15.85,18.3-24.19,27.07C279.63,571.6,278.8,571.28,273.65,565.11z"/>
        <path class="st3" d="M119.4,424.8c-6,11.67-12,23.34-18,35.01c-1.04,0.39-2.36,0.5-3.08,1.22c-13.36,13.43-26.65,26.94-39.96,40.43
		c-2.67-3.11-5.34-6.22-8.02-9.34c-0.02-0.76-0.03-1.52-0.05-2.28c1.84-1.27,3.92-2.29,5.48-3.84c19.06-18.95,38.02-38,57.1-56.93
		C114.69,427.28,117.21,426.21,119.4,424.8z"/>
        <path class="st7" d="M235.43,347.81c-4.59-0.52-9.17-1.04-13.76-1.56c0.72-2.33,1.44-4.66,2.16-6.98c1.72-1.08,3.7-1.91,5.12-3.29
		c7.15-6.96,14.2-14.04,21.21-21.15c10.24-10.37,20.42-20.81,30.62-31.22c2.32,3.47,4.63,6.94,6.95,10.42
		c-15.7,15.9-31.4,31.79-47.07,47.72C238.8,343.65,237.17,345.79,235.43,347.81z"/>
        <path class="st7" d="M270.31,432.41c5.43,0.03,10.87,0.05,16.3,0.08c-1.16,1.91-2.01,4.13-3.54,5.68
		c-17.91,18.06-35.91,36.05-53.96,53.98c-1.43,1.42-3.37,2.33-5.08,3.48c-1.58-3.85-3.16-7.71-4.74-11.56
		c0.63-0.43,1.35-0.78,1.88-1.31c15.69-15.66,31.37-31.32,47.01-47.03C269.09,434.81,269.61,433.52,270.31,432.41z"/>
        <path class="st7" d="M298.03,169.1c-17.18,17.01-34.38,34-51.53,51.04c-1.61,1.6-2.89,3.52-4.33,5.3
		c-2.37-4.06-4.73-8.12-7.09-12.18c6.53-6.24,13.19-12.35,19.57-18.74c12.66-12.68,25.16-25.51,37.72-38.27
		C294.25,160.54,296.14,164.82,298.03,169.1z"/>
        <path class="st7" d="M233.96,210.47c-1.04-5.69-2.08-11.37-3.12-17.06c2.12-1.52,4.51-2.77,6.33-4.6
		c15.73-15.78,31.37-31.67,47.03-47.52c2.31,3.86,4.63,7.72,6.94,11.59c-0.63,0.44-1.33,0.79-1.87,1.32
		c-17.68,17.65-35.36,35.32-53,53.01C235.34,208.15,234.72,209.38,233.96,210.47z"/>
        <path class="st9" d="M291.13,152.88c-2.31-3.86-4.63-7.72-6.94-11.59c-0.78-1.13-1.57-2.27-2.35-3.4c-1.63-2.45-3.26-4.9-4.88-7.34
		c3.79,0.79,8.01,0.77,11.3,2.5c14.89,7.81,25.25,20.14,33.01,34.83c-6.56,6.58-13.11,13.16-19.67,19.74
		c-1.19-6.17-2.38-12.34-3.56-18.52c-1.89-4.28-3.77-8.57-5.66-12.85C291.96,155.13,291.54,154.01,291.13,152.88z"/>
        <path class="st10" d="M190.82,283.69c-2.17,1.46-4.64,2.6-6.46,4.41c-45.07,44.96-90.07,90-135.13,134.97
		c-1.7,1.69-3.94,2.84-5.93,4.24c2.61-4.62,5.22-9.25,7.84-13.87c2.15-1.48,4.59-2.67,6.41-4.48
		c44.19-44.09,88.31-88.25,132.51-132.33c1.8-1.79,4.27-2.91,6.42-4.34C194.6,276.09,192.71,279.89,190.82,283.69z"/>
        <path class="st2" d="M513.39,422.7c1.98,3.81,3.95,7.61,5.93,11.42c-0.08,0.41-0.15,0.83-0.23,1.24c-1.83,1.31-3.86,2.41-5.44,3.96
		c-14.81,14.49-29.54,29.06-44.29,43.6c-1.95-3.86-3.9-7.71-5.84-11.57c1.86-1.64,3.81-3.2,5.57-4.94
		C483.88,451.87,498.63,437.28,513.39,422.7z"/>
        <path class="st3" d="M462.11,468.71c-2.26-4.51-4.53-9.03-6.79-13.54c1.87-1.23,4-2.2,5.56-3.74c13-12.86,25.88-25.85,38.87-38.71
		c1.57-1.56,3.63-2.62,5.46-3.91c2.02,3.45,4.04,6.91,6.06,10.36c-1.05,0.83-2.2,1.56-3.14,2.5c-14.33,14.29-28.65,28.6-42.93,42.94
		C464,465.8,463.13,467.33,462.11,468.71z"/>
        <path class="st8" d="M276.96,130.55c1.63,2.45,3.26,4.9,4.88,7.34c-16.07,16.23-32.13,32.47-48.24,48.66
		c-0.61,0.61-1.71,0.73-2.58,1.07c1.93-6.55,3.02-13.5,5.95-19.57c7.07-14.65,18.05-26.05,32.04-34.4
		C271.43,132.22,274.3,131.56,276.96,130.55z"/>
        <path class="st3" d="M496.11,394.88c1.96,3,3.93,6,5.89,9c-0.41,0.64-0.73,1.38-1.26,1.91c-14.63,14.67-29.26,29.34-43.95,43.95
		c-0.88,0.88-2.26,1.27-3.4,1.89c-1.66-3.34-3.33-6.69-4.99-10.03c0.54-0.78,0.96-1.68,1.62-2.34c14.05-14.1,28.11-28.18,42.23-42.2
		C493.27,396.05,494.82,395.59,496.11,394.88z"/>
        <path class="st11" d="M493.27,530.27c-2.26-4.53-4.53-9.07-6.79-13.6c5.85-5.87,11.71-11.73,17.56-17.6
		c1.72-1.09,3.7-1.92,5.13-3.31c6.76-6.56,13.31-13.33,20.06-19.9c1.44-1.4,3.39-2.28,5.1-3.4c0.88,4.59,1.76,9.19,2.64,13.78
		c-1.2,0.93-2.53,1.74-3.6,2.8c-12.25,12.2-24.49,24.42-36.67,36.69C495.38,527.07,494.41,528.75,493.27,530.27z"/>
        <path class="st3" d="M486.52,381.03c2.09,2.96,4.18,5.92,6.26,8.87c-9.39,9.64-18.7,19.36-28.2,28.9
		c-6.1,6.12-12.46,11.99-18.7,17.97c-1.96-3.87-3.93-7.73-5.89-11.6c1.62-1.32,3.36-2.51,4.84-3.98
		c12.25-12.18,24.42-24.43,36.69-36.58C482.96,383.19,484.84,382.21,486.52,381.03z"/>
        <path class="st3" d="M476.37,496.8c-1.55-3.07-3.1-6.13-4.65-9.2c15.85-15.86,31.7-31.72,47.56-47.59
		c-0.03,6.18-0.06,12.36-0.1,18.54c-1.7,1.15-3.63,2.07-5.07,3.49c-10.54,10.4-20.92,20.97-31.51,31.31
		C480.96,494.95,478.46,495.67,476.37,496.8z"/>
        <path class="st10" d="M166.92,330.98c-2.34,1.55-5.01,2.76-6.96,4.7c-38.37,38.24-76.65,76.56-114.97,114.85
		c-1.62,1.62-3.43,3.06-5.15,4.58c-0.36-2.32-0.72-4.64-1.08-6.96c2.36-1.41,5.14-2.42,7.03-4.3
		c40.49-40.33,80.88-80.78,121.34-121.14c1.69-1.69,3.93-2.83,5.91-4.23C170.99,322.65,168.96,326.81,166.92,330.98z"/>
        <path class="st2" d="M475.56,366.35c2.74,3.67,5.49,7.34,8.23,11.01c-1.61,1.32-3.34,2.52-4.81,3.98
		c-11.8,11.74-23.52,23.56-35.37,35.24c-1.69,1.66-4,2.69-6.02,4.02c-1.73-3.55-3.47-7.1-5.2-10.65
		c11.33-11.14,22.71-22.24,33.97-33.45C469.59,373.28,472.5,369.74,475.56,366.35z"/>
        <path class="st12" d="M328.12,192.27c0.77,7.8-0.57,15.18-4.43,22.06c-1.45,0.81-3.18,1.33-4.32,2.46
		c-12.17,12.03-24.27,24.15-36.32,36.3c-1.02,1.03-1.59,2.52-2.37,3.79c-2-0.63-3.99-1.26-5.99-1.89
		c8.6-7.76,14.59-17.26,18.8-27.97c1.14-1.93,2.28-3.87,3.43-5.8c0.38-0.78,0.75-1.56,1.13-2.34c0,0-0.01,0-0.01,0
		c1.7-1.11,3.64-1.98,5.07-3.37c6.72-6.54,13.25-13.26,19.96-19.81C324.51,194.31,326.42,193.4,328.12,192.27z"/>
        <path class="st2" d="M430.92,407.13c-2.24-4.46-4.48-8.91-6.72-13.37c1.84-1.25,3.92-2.25,5.49-3.78
		c12.21-11.85,24.32-23.79,36.46-35.71c2.32,2.99,4.63,5.99,6.95,8.98c-9.76,10.02-19.55,20-29.27,30.06
		C439.46,397.85,435.22,402.52,430.92,407.13z"/>
        <path class="st7" d="M248.29,430.99c5.39,0.38,10.79,0.77,16.18,1.15c-0.76,1.28-1.29,2.78-2.31,3.8
		c-13.65,13.75-27.35,27.45-41.1,41.1c-1.03,1.02-2.51,1.58-3.78,2.36c-1.37-4.6-2.74-9.19-4.11-13.79c1.46-0.79,3.21-1.3,4.35-2.42
		c9.69-9.53,19.28-19.16,28.84-28.82C247.25,433.48,247.66,432.12,248.29,430.99z"/>
        <path class="st8" d="M207.77,423.88c11.99,2.24,23.98,4.48,35.98,6.72c-10.48,10.5-20.95,20.99-31.43,31.49
		C210.8,449.35,209.28,436.61,207.77,423.88z"/>
        <path class="st9" d="M287.74,294.03c-2.32-3.47-4.63-6.94-6.95-10.42c-0.79-1.13-1.59-2.26-2.38-3.39c0-0.5-0.01-1-0.01-1.5
		c8-0.68,14.98,2.41,20.42,7.6c7.28,6.94,13.59,14.91,20.31,22.43c-5.44,5.55-10.89,11.11-16.33,16.66
		c-1.57-3.87-3.13-7.73-4.7-11.6c-0.76-1.56-1.53-3.12-2.29-4.68c-1.92-3.87-3.85-7.74-5.77-11.61
		C289.27,296.36,288.51,295.2,287.74,294.03z"/>
        <path class="st13" d="M214.77,236.26c-1.99,1.39-4.25,2.52-5.94,4.21c-36.32,36.22-72.56,72.52-108.9,108.73
		c-1.65,1.65-4.01,2.59-6.04,3.86c10.77-12.74,21.53-25.47,32.3-38.21c2.04-1.24,4.43-2.13,6.08-3.77
		c26.77-26.62,53.43-53.35,80.17-80.01c1.58-1.58,3.59-2.72,5.4-4.07C216.81,230.08,215.79,233.17,214.77,236.26z"/>
        <path class="st7" d="M264.21,247.99c-3.13-2.7-6.26-5.39-9.39-8.09c1.75-1.47,3.6-2.84,5.23-4.44
		c13.84-13.6,27.64-27.24,41.45-40.87c-0.39,5.41-0.77,10.82-1.16,16.23c-0.02,0.34-0.02,0.67,0.01,1.01
		c-0.36,0.42-0.73,0.85-1.09,1.27c-0.41,1.16-0.83,2.32-1.24,3.48c-1.83,1.27-3.87,2.32-5.46,3.84
		C283.06,229.55,273.65,238.79,264.21,247.99z"/>
        <path class="st12" d="M349.19,449.31c-1.69,7.33-3.38,14.66-5.07,21.99c-1.68,1.19-3.55,2.18-4.99,3.61
		c-10.11,9.99-20.09,20.1-30.21,30.07c-1.42,1.4-3.38,2.25-5.09,3.36c1.57-6.16,3.14-12.32,4.7-18.47l-0.01,0
		c0.37-0.78,0.74-1.55,1.11-2.33c0.42-1.16,0.84-2.31,1.26-3.47c1.7-1.15,3.62-2.06,5.05-3.47c9.29-9.15,18.43-18.44,27.73-27.58
		C345.22,451.49,347.33,450.53,349.19,449.31z"/>
        <path class="st11" d="M537.61,492.17c-0.38,6.17-0.76,12.34-1.14,18.51c-1.83,1.3-3.86,2.39-5.46,3.93
		c-10.22,9.86-20.35,19.83-30.51,29.76c-1.96-3.86-3.91-7.72-5.87-11.58c1.61-1.35,3.32-2.6,4.8-4.08
		c11.06-11,22.04-22.07,33.13-33.03C534,494.26,535.91,493.33,537.61,492.17z"/>
        <path class="st2" d="M422.22,390.24c-1.67-3.39-3.34-6.79-5-10.18c12.83-12.84,25.66-25.67,38.49-38.51
		c2.26,2.72,4.52,5.45,6.79,8.17c-0.86,1.44-1.46,3.12-2.61,4.28c-11.23,11.36-22.53,22.64-33.87,33.89
		C424.98,388.91,423.5,389.47,422.22,390.24z"/>
        <path class="st2" d="M504.04,499.07c-5.85,5.87-11.71,11.73-17.56,17.6c-2.58-5.09-5.16-10.17-7.73-15.26
		c1.84-1.28,3.91-2.33,5.5-3.87c11.34-11,22.59-22.11,33.87-33.18c-1.94,6.95-3.87,13.91-5.81,20.86
		C509.55,489.84,506.79,494.45,504.04,499.07z"/>
        <path class="st2" d="M445.1,328.91c2.89,3.42,5.79,6.84,8.68,10.25c-2.03,1.32-4.33,2.35-6.04,4
		c-11.05,10.64-21.97,21.42-32.94,32.15c-1.95-3.86-3.91-7.72-5.86-11.58c1.74-1.49,3.58-2.89,5.22-4.49
		C424.49,349.16,434.79,339.03,445.1,328.91z"/>
        <path class="st12" d="M346.71,425.13c1.51-0.41,3.02-0.81,4.53-1.22c-0.38,6.15-0.75,12.31-1.13,18.46
		c-1.83,1.27-3.88,2.32-5.46,3.85c-10.58,10.24-21.07,20.57-31.59,30.88c0.79-5.79,1.58-11.58,2.38-17.37
		c0.41-1.54,0.81-3.07,1.22-4.61c1.56-1.01,3.34-1.79,4.63-3.06c7.52-7.36,14.96-14.81,22.32-22.32
		C344.89,428.44,345.69,426.68,346.71,425.13z"/>
        <path class="st10" d="M143.21,377.5c-2.01,1.34-4.32,2.39-6,4.07c-29.36,29.24-58.62,58.56-87.97,87.81
		c-1.7,1.69-3.93,2.85-5.91,4.26c-0.4-0.76-0.81-1.53-1.21-2.29c0.02-0.39,0.03-0.79,0.05-1.18c1.72-1.53,3.52-2.97,5.14-4.59
		c31.88-31.85,63.72-63.73,95.64-95.53c1.67-1.66,3.98-2.68,5.99-4C147.03,369.87,145.12,373.68,143.21,377.5z"/>
        <path class="st14" d="M360.16,267.72c-6.15-11.96-12.52-23.83-18.27-35.98c-1.13-2.39,0.1-5.89,0.24-8.88
		c0.54-0.07,1.08-0.15,1.62-0.22c10.31,10.21,20.61,20.43,30.92,30.64C369.83,258.09,365,262.9,360.16,267.72z"/>
        <path class="st2" d="M434.91,317.23c2.29,2.64,4.58,5.28,6.88,7.92c-8.65,8.89-17.35,17.74-25.94,26.7c-2.88,3-5.49,6.27-8.23,9.42
		c-2.32-4.58-4.63-9.15-6.95-13.73c1.87-1.18,4.02-2.09,5.57-3.6c7.79-7.59,15.38-15.38,23.16-22.98
		C430.97,319.43,433.06,318.46,434.91,317.23z"/>
        <path class="st2" d="M398.85,343.94c-1.93-3.86-3.86-7.72-5.79-11.59c1.84-1.27,3.89-2.33,5.49-3.86
		c8.34-7.95,16.57-16.02,24.84-24.05c2.87,3.13,5.73,6.26,8.6,9.39c-1.65,1.21-3.49,2.24-4.93,3.66
		c-7.76,7.63-15.39,15.41-23.17,23.03C402.47,341.92,400.55,342.82,398.85,343.94z"/>
        <path class="st8" d="M278.4,278.73c0,0.5,0.01,1,0.01,1.5c-15.65,15.83-31.29,31.68-47,47.45c-0.71,0.71-2.06,0.78-3.12,1.14
		c6.74-15.39,15.94-29.08,28.6-40.19C262.99,283.27,269.75,278.8,278.4,278.73z"/>
        <path class="st11" d="M38.44,543.24c-2.25-3.09-4.51-6.17-6.76-9.26c8.8-8.99,17.58-17.99,26.43-26.93c0.6-0.6,1.71-0.69,2.58-1.01
		c2.72,2.69,5.44,5.39,8.15,8.08c-1.86,1.66-3.77,3.27-5.56,5C54.98,527.14,46.72,535.2,38.44,543.24z"/>
        <path class="st15" d="M42.17,470.17c-0.02,0.39-0.03,0.79-0.05,1.18c-4.25,4.07-8.39,8.26-12.8,12.15
		c-2.34,2.07-5.12,3.64-7.7,5.43c2.02-19.61,8.54-37.74,18.12-54.85c-0.33,4.69-0.66,9.39-0.99,14.08c0.36,2.32,0.72,4.64,1.08,6.96
		C40.61,460.13,41.39,465.15,42.17,470.17z"/>
        <path class="st2" d="M391.07,328.87c-1.68-3.44-3.36-6.87-5.05-10.31c7.64-7.84,15.24-15.72,22.96-23.49
		c1.01-1.01,2.59-1.45,3.91-2.15c2.79,3.07,5.58,6.14,8.37,9.21c-1.75,1.06-3.75,1.86-5.2,3.23c-4.87,4.62-9.46,9.54-14.32,14.17
		C398.33,322.79,394.64,325.76,391.07,328.87z"/>
        <path class="st14" d="M68.85,514.13c-2.72-2.69-5.44-5.39-8.15-8.08c-0.04-0.76-0.07-1.52-0.11-2.28
		c9.82-9.6,19.6-19.24,29.5-28.76c1.56-1.5,3.67-2.44,5.52-3.64c-7.98,15.74-15.96,31.48-23.94,47.22
		C70.73,517.09,69.79,515.61,68.85,514.13z"/>
        <path class="st11" d="M50.35,492.13c2.67,3.11,5.34,6.22,8.01,9.34c0,0.37,0,0.75-0.01,1.13c-1.83,1.26-3.87,2.31-5.46,3.82
		c-8.03,7.61-15.95,15.33-23.9,23.02c-1.71-4.31-3.42-8.62-5.12-12.93c1.68-1.18,3.54-2.17,5.01-3.57
		C36.09,506.04,43.2,499.07,50.35,492.13z"/>
        <path class="st14" d="M217.83,227c-1.81,1.35-3.82,2.49-5.4,4.07c-26.74,26.66-53.4,53.39-80.17,80.01
		c-1.65,1.64-4.03,2.53-6.08,3.77c11.04-12.08,21.74-24.49,33.2-36.17c18.47-18.83,37.44-37.17,56.43-55.95
		C216.4,223.97,217.12,225.48,217.83,227z"/>
        <path class="st13" d="M119.4,424.8c-2.19,1.41-4.71,2.48-6.52,4.28C93.79,448,74.84,467.06,55.78,486
		c-1.56,1.55-3.64,2.57-5.48,3.84c-0.4-0.38-0.81-0.77-1.21-1.15c0.01-0.38,0.02-0.77,0.03-1.15c3.85-4.04,7.61-8.16,11.55-12.1
		c19.75-19.8,39.52-39.58,59.35-59.3c1.57-1.56,3.65-2.6,5.5-3.88C123.47,416.44,121.44,420.62,119.4,424.8z"/>
        <path class="st12" d="M300.34,210.81c0.39-5.41,0.77-10.82,1.16-16.23c0.04-0.77,0.09-1.54,0.13-2.31
		c4.63-4.09,9.21-8.24,13.91-12.24c2.68-2.28,5.57-4.31,8.36-6.45c1.22,4.24,2.44,8.49,3.66,12.73c-7.22,6.9-14.4,13.85-21.7,20.66
		C304.24,208.49,302.19,209.55,300.34,210.81z"/>
        <path class="st2" d="M400.99,280.32c2.85,3.03,5.69,6.06,8.54,9.09c-1.74,1.48-3.56,2.89-5.2,4.47c-6.91,6.64-13.77,13.33-20.65,20
		c-1.95-3.86-3.9-7.71-5.85-11.57C385.55,294.98,393.27,287.65,400.99,280.32z"/>
        <path class="st11" d="M49.11,487.54c-0.01,0.38-0.02,0.77-0.03,1.15c-3.19,2.62-6.46,5.15-9.55,7.88
		c-5.67,5.02-11.24,10.17-16.84,15.26c-0.42-5.4-0.83-10.79-1.25-16.19c4.11-3.57,8.19-7.18,12.35-10.71
		c3.13-2.66,6.35-5.22,9.53-7.82C45.25,480.58,47.18,484.06,49.11,487.54z"/>
        <path class="st16" d="M224.04,495.63c1.7-1.15,3.65-2.06,5.08-3.48c18.04-17.93,36.04-35.92,53.96-53.98
		c1.53-1.54,2.38-3.77,3.54-5.68c2.28-0.09,4.56-0.17,6.85-0.25c-0.79,1.27-1.38,2.74-2.41,3.78
		c-20.8,20.88-41.65,41.72-62.51,62.54c-0.67,0.67-1.52,1.15-2.29,1.72C225.5,498.73,224.77,497.18,224.04,495.63z"/>
        <path class="st15" d="M512.3,485.22c1.94-6.95,3.87-13.91,5.81-20.86c0.35-1.94,0.71-3.87,1.06-5.81
		c0.03-6.18,0.06-12.36,0.1-18.54c-0.06-1.55-0.12-3.1-0.17-4.64c0.07-0.41,0.15-0.83,0.22-1.24c4.58,11.24,9.16,22.48,13.74,33.72
		c-3.59,3.04-7.18,6.08-10.78,9.1C518.97,479.72,515.63,482.46,512.3,485.22z"/>
        <path class="st2" d="M376.42,299.67c-2.27-4.52-4.53-9.04-6.8-13.55c1.86-1.22,3.92-2.23,5.55-3.71c4.94-4.5,9.72-9.19,14.56-13.81
		c2.64,2.74,5.27,5.48,7.91,8.22c-1.64,1.83-3.25,3.69-4.92,5.48C387.29,288.1,381.85,293.88,376.42,299.67z"/>
        <path class="st15" d="M71.76,518.66c-6.31,12.66-12.62,25.31-19.84,39.77c-3.8-4.32-6.9-7.83-9.99-11.34
		c8.88-9.13,17.73-18.27,26.68-27.33C69.31,519.06,70.69,519.02,71.76,518.66z"/>
        <path class="st15" d="M534.42,518.82c-4.31,16.11-15.07,27.55-27.81,38.43c-1.6-3.39-3.05-6.45-4.5-9.51
		c1.68-1.19,3.56-2.18,5.02-3.61c7.43-7.28,14.7-14.73,22.15-21.99C530.71,520.74,532.69,519.91,534.42,518.82z"/>
        <path class="st9" d="M326.97,510.46c-5.77,0.44-11.55,0.88-17.32,1.32c0.22-0.72,0.21-1.67,0.68-2.14
		c9.45-9.52,18.94-19,28.48-28.43c0.47-0.46,1.43-0.43,2.15-0.63C336.3,490.54,331.64,500.5,326.97,510.46z"/>
        <path class="st16" d="M291.13,152.88c0.41,1.12,0.82,2.25,1.23,3.37c-12.56,12.77-25.07,25.6-37.72,38.27
		c-6.38,6.39-13.04,12.5-19.57,18.74c-0.37-0.93-0.75-1.86-1.12-2.79c0.76-1.09,1.39-2.32,2.31-3.25
		c17.64-17.7,35.32-35.36,53-53.01C289.8,153.67,290.51,153.32,291.13,152.88z"/>
        <path class="st16" d="M228.3,328.82c1.05-0.37,2.41-0.43,3.12-1.14c15.71-15.77,31.35-31.62,47-47.45
		c0.79,1.13,1.59,2.26,2.38,3.39c-10.2,10.41-20.38,20.84-30.62,31.21c-7.01,7.11-14.06,14.18-21.21,21.15
		c-1.43,1.39-3.4,2.21-5.12,3.29C225.32,335.78,226.81,332.3,228.3,328.82z"/>
        <path class="st12" d="M322.4,313.84c1.93,3.47,3.86,6.95,5.8,10.42c-6.56,6.18-13.12,12.36-19.68,18.54
		c-1.2-3.86-2.4-7.73-3.61-11.59c0-0.76-0.01-1.52-0.01-2.28c2.12-1.89,4.2-3.83,6.36-5.67
		C314.95,320.08,318.69,316.97,322.4,313.84z"/>
        <path class="st17" d="M280.69,256.87c0.78-1.27,1.35-2.76,2.37-3.79c12.05-12.15,24.15-24.26,36.32-36.3
		c1.14-1.13,2.87-1.65,4.32-2.46c-5.08,13.37-14.68,23.24-25.54,31.86C292.84,250.39,286.54,253.35,280.69,256.87z"/>
        <path class="st9" d="M337.5,346.22c-8.95,1.26-17.89,2.53-26.84,3.79c-0.36-0.09-0.7-0.23-1.02-0.4c0-1.11,0.01-2.22,0.01-3.33
		c3.89-3.32,7.76-6.67,11.68-9.95c3.04-2.54,6.16-4.98,9.24-7.47C332.88,334.65,335.19,340.44,337.5,346.22z"/>
        <path class="st16" d="M231.03,187.63c0.87-0.35,1.97-0.46,2.58-1.07c16.11-16.19,32.17-32.43,48.24-48.66
		c0.78,1.13,1.57,2.27,2.35,3.4c-15.66,15.85-31.29,31.74-47.03,47.52c-1.82,1.82-4.21,3.08-6.33,4.6
		C230.9,191.49,230.96,189.56,231.03,187.63z"/>
        <path class="st2" d="M378.25,256.96c2.64,2.68,5.29,5.35,7.93,8.03c-6.16,5.86-12.32,11.71-18.48,17.57
		c-1.66-3.34-3.32-6.68-4.99-10.02C367.89,267.35,373.07,262.16,378.25,256.96z"/>
        <path class="st16" d="M217.29,479.4c1.27-0.78,2.75-1.34,3.78-2.36c13.75-13.65,27.45-27.35,41.1-41.1
		c1.01-1.02,1.55-2.52,2.31-3.8c1.94,0.09,3.89,0.18,5.83,0.27c-0.7,1.11-1.22,2.41-2.12,3.32c-15.64,15.71-31.32,31.37-47.01,47.03
		c-0.53,0.53-1.25,0.88-1.88,1.31C218.63,482.51,217.96,480.95,217.29,479.4z"/>
        <path class="st10" d="M462.11,468.71c1.02-1.38,1.89-2.9,3.09-4.11c14.28-14.35,28.59-28.65,42.93-42.94
		c0.94-0.94,2.09-1.67,3.14-2.5c0.71,1.18,1.42,2.36,2.13,3.54c-14.76,14.58-29.51,29.16-44.3,43.71c-1.77,1.74-3.71,3.3-5.57,4.94
		C463.05,470.48,462.58,469.59,462.11,468.71z"/>
        <path class="st10" d="M453.39,451.62c1.14-0.62,2.52-1.01,3.4-1.89c14.69-14.61,29.33-29.27,43.95-43.95
		c0.53-0.53,0.84-1.27,1.26-1.91c1.07,1.64,2.14,3.28,3.2,4.92c-1.83,1.29-3.89,2.36-5.46,3.91
		c-12.99,12.87-25.86,25.86-38.87,38.71c-1.56,1.54-3.69,2.51-5.56,3.74C454.67,453.98,454.03,452.8,453.39,451.62z"/>
        <path class="st10" d="M519.1,435.37c0.06,1.55,0.12,3.1,0.17,4.64c-15.85,15.86-31.7,31.72-47.55,47.59
		c-0.78-1.56-1.57-3.11-2.35-4.67c14.75-14.55,29.48-29.11,44.29-43.6C515.24,437.77,517.27,436.67,519.1,435.37z"/>
        <path class="st16" d="M301.63,192.28c-0.04,0.77-0.09,1.54-0.13,2.31c-13.81,13.63-27.61,27.27-41.45,40.87
		c-1.63,1.6-3.48,2.97-5.23,4.44c-0.95-0.86-1.91-1.71-2.86-2.57c14.66-14.5,29.31-29.01,43.99-43.5c1.77-1.75,3.69-3.36,5.54-5.03
		C301.54,189.96,301.59,191.12,301.63,192.28z"/>
        <path class="st10" d="M445.89,436.77c6.24-5.98,12.6-11.84,18.7-17.97c9.49-9.54,18.81-19.26,28.2-28.9
		c1.11,1.66,2.22,3.32,3.33,4.98c-1.3,0.71-2.85,1.17-3.86,2.17c-14.13,14.02-28.18,28.11-42.23,42.2
		c-0.66,0.66-1.09,1.55-1.62,2.34C447.56,439.98,446.72,438.37,445.89,436.77z"/>
        <path class="st13" d="M437.59,420.6c2.02-1.32,4.33-2.35,6.02-4.02c11.86-11.68,23.57-23.51,35.37-35.24
		c1.47-1.46,3.2-2.66,4.81-3.98c0.91,1.22,1.82,2.45,2.72,3.67c-1.68,1.18-3.56,2.16-5,3.58c-12.27,12.15-24.44,24.41-36.69,36.58
		c-1.47,1.47-3.22,2.66-4.84,3.98C439.19,423.65,438.39,422.12,437.59,420.6z"/>
        <path class="st18" d="M537.61,492.17c-1.7,1.16-3.61,2.09-5.05,3.52c-11.09,10.96-22.07,22.03-33.13,33.03
		c-1.48,1.48-3.19,2.72-4.8,4.08c-0.45-0.84-0.9-1.68-1.36-2.52c1.14-1.52,2.11-3.2,3.44-4.54c12.18-12.27,24.42-24.49,36.67-36.69
		c1.07-1.06,2.39-1.87,3.6-2.8C537.18,488.22,537.4,490.2,537.61,492.17z"/>
        <path class="st13" d="M430.92,407.13c4.3-4.61,8.54-9.28,12.91-13.82c9.72-10.06,19.51-20.05,29.27-30.06
		c0.82,1.03,1.64,2.07,2.46,3.1c-3.06,3.39-5.97,6.93-9.21,10.15c-11.26,11.21-22.64,22.31-33.97,33.45
		C431.9,409.01,431.41,408.07,430.92,407.13z"/>
        <path class="st13" d="M58.36,502.59c0-0.38,0-0.75,0.01-1.13c13.31-13.49,26.6-27,39.96-40.43c0.71-0.72,2.04-0.83,3.08-1.22
		c-1.93,3.85-3.86,7.7-5.79,11.56c-1.85,1.2-3.96,2.14-5.52,3.64c-9.9,9.52-19.68,19.16-29.5,28.76
		C59.85,503.37,59.1,502.98,58.36,502.59z"/>
        <path class="st13" d="M519.18,458.55c-0.35,1.94-0.71,3.87-1.06,5.81c-11.28,11.07-22.52,22.17-33.87,33.18
		c-1.59,1.54-3.65,2.59-5.5,3.87c-0.79-1.54-1.59-3.08-2.38-4.61c2.1-1.13,4.59-1.85,6.23-3.45c10.6-10.34,20.98-20.91,31.51-31.31
		C515.54,460.62,517.47,459.7,519.18,458.55z"/>
        <path class="st13" d="M422.22,390.24c1.28-0.77,2.76-1.33,3.79-2.36c11.35-11.24,22.64-22.53,33.87-33.89
		c1.14-1.16,1.75-2.84,2.61-4.28c1.22,1.52,2.44,3.04,3.66,4.55c-12.14,11.91-24.25,23.86-36.46,35.71
		c-1.57,1.53-3.65,2.53-5.49,3.78C423.54,392.59,422.88,391.41,422.22,390.24z"/>
        <path class="st17" d="M340.96,480.58c-0.73,0.2-1.69,0.17-2.15,0.63c-9.54,9.43-19.03,18.91-28.48,28.43
		c-0.47,0.47-0.46,1.42-0.68,2.14c-2.69,0.2-5.37,0.39-8.06,0.59c0.36-0.56,0.72-1.12,1.09-1.68c0.38-0.78,0.77-1.56,1.15-2.35
		l-0.02,0c1.71-1.11,3.67-1.96,5.1-3.36c10.12-9.97,20.1-20.08,30.21-30.07c1.44-1.43,3.32-2.42,4.99-3.61
		C343.06,474.39,342.01,477.49,340.96,480.58z"/>
        <path class="st17" d="M313.07,477.1c10.52-10.31,21-20.64,31.59-30.88c1.58-1.53,3.63-2.58,5.46-3.85
		c-0.31,2.31-0.62,4.63-0.93,6.94c-1.86,1.22-3.97,2.19-5.53,3.71c-9.3,9.13-18.44,18.43-27.73,27.58
		c-1.43,1.41-3.35,2.33-5.05,3.47c-0.02-0.78-0.03-1.56-0.05-2.34C311.57,480.19,312.32,478.64,313.07,477.1z"/>
        <path class="st10" d="M414.8,375.31c10.96-10.73,21.89-21.51,32.94-32.15c1.71-1.65,4.01-2.68,6.04-4c0.64,0.8,1.29,1.59,1.93,2.39
		c-12.83,12.84-25.66,25.67-38.49,38.51C416.41,378.48,415.61,376.9,414.8,375.31z"/>
        <path class="st7" d="M293.49,227.01c-4.21,10.71-10.2,20.22-18.8,27.97c-2.43-1.52-4.87-3.03-7.3-4.55
		c6.86-6.57,13.68-13.19,20.63-19.68C289.62,229.26,291.66,228.24,293.49,227.01z"/>
        <path class="st10" d="M407.62,361.26c2.73-3.15,5.35-6.41,8.23-9.42c8.59-8.95,17.28-17.81,25.94-26.7c1.1,1.25,2.21,2.5,3.31,3.76
		c-10.31,10.12-20.6,20.25-30.94,30.34c-1.64,1.6-3.48,3-5.22,4.49C408.5,362.91,408.06,362.09,407.62,361.26z"/>
        <path class="st18" d="M534.42,518.82c-1.73,1.09-3.71,1.92-5.14,3.31c-7.45,7.26-14.72,14.71-22.15,21.99
		c-1.45,1.43-3.33,2.42-5.02,3.61c-0.54-1.13-1.08-2.25-1.62-3.38c10.16-9.93,20.29-19.9,30.51-29.76c1.6-1.54,3.63-2.63,5.46-3.93
		C535.78,513.39,535.1,516.11,534.42,518.82z"/>
        <path class="st16" d="M212.31,462.09c10.48-10.5,20.95-20.99,31.43-31.49c1.52,0.13,3.03,0.26,4.55,0.39
		c-0.63,1.14-1.04,2.49-1.92,3.38c-9.56,9.66-19.15,19.29-28.84,28.82c-1.14,1.12-2.89,1.63-4.35,2.42
		C212.89,464.43,212.6,463.26,212.31,462.09z"/>
        <path class="st10" d="M398.85,343.94c1.69-1.13,3.61-2.02,5.04-3.42c7.78-7.62,15.4-15.39,23.17-23.03
		c1.45-1.42,3.28-2.45,4.93-3.66c0.97,1.13,1.95,2.26,2.92,3.39c-1.85,1.23-3.95,2.21-5.51,3.73c-7.78,7.6-15.37,15.39-23.16,22.98
		c-1.55,1.51-3.7,2.41-5.57,3.6C400.07,346.34,399.46,345.14,398.85,343.94z"/>
        <path class="st16" d="M293.49,227.01c-1.84,1.24-3.88,2.25-5.47,3.74c-6.95,6.48-13.76,13.11-20.63,19.68
		c-1.06-0.81-2.12-1.63-3.18-2.44c9.44-9.2,18.84-18.44,28.35-27.57c1.59-1.52,3.63-2.57,5.46-3.84c0.01,0.77,0.01,1.53,0.01,2.3
		c0,0,0.01,0,0.01,0c-0.38,0.78-0.75,1.56-1.13,2.34C295.78,223.14,294.64,225.07,293.49,227.01z"/>
        <path class="st18" d="M71.76,518.66c-1.06,0.35-2.44,0.39-3.15,1.11c-8.95,9.05-17.8,18.2-26.68,27.33
		c-1.16-1.28-2.33-2.57-3.49-3.85c8.28-8.04,16.55-16.1,24.85-24.12c1.79-1.73,3.7-3.33,5.56-5c0.94,1.48,1.88,2.97,2.83,4.46
		C71.68,518.59,71.76,518.66,71.76,518.66z"/>
        <path class="st17" d="M298.04,218.87c0-0.77-0.01-1.53-0.01-2.3c0.41-1.16,0.83-2.32,1.24-3.48c0.36-0.42,0.73-0.85,1.09-1.27
		c-0.02-0.34-0.03-0.67-0.01-1.01c1.85-1.27,3.9-2.32,5.52-3.83c7.3-6.82,14.48-13.76,21.7-20.66c0.18,1.98,0.37,3.97,0.55,5.95
		c-1.69,1.13-3.61,2.04-5.05,3.44c-6.71,6.54-13.25,13.27-19.96,19.81C301.68,216.9,299.74,217.77,298.04,218.87z"/>
        <path class="st13" d="M391.07,328.87c3.57-3.1,7.26-6.08,10.68-9.34c4.86-4.63,9.45-9.55,14.32-14.17c1.45-1.38,3.45-2.17,5.2-3.23
		c0.71,0.77,1.42,1.55,2.12,2.32c-8.27,8.03-16.5,16.1-24.84,24.05c-1.6,1.53-3.65,2.59-5.49,3.86
		C392.4,331.19,391.73,330.03,391.07,328.87z"/>
        <path class="st18" d="M58.36,502.59c0.74,0.39,1.49,0.78,2.23,1.17c0.03,0.76,0.07,1.52,0.11,2.28c-0.87,0.33-1.99,0.41-2.58,1.01
		c-8.85,8.94-17.63,17.94-26.43,26.93c-0.89-1.52-1.79-3.04-2.68-4.56c7.96-7.68,15.87-15.41,23.9-23.02
		C54.49,504.89,56.52,503.85,58.36,502.59z"/>
        <path class="st18" d="M512.3,485.22c3.33-2.76,6.66-5.5,9.98-8.28c3.61-3.02,7.19-6.07,10.78-9.1c0.42,1.54,0.84,3.09,1.27,4.63
		c-1.71,1.12-3.66,2-5.1,3.4c-6.75,6.57-13.31,13.33-20.06,19.9c-1.43,1.39-3.4,2.22-5.13,3.31
		C506.79,494.45,509.55,489.84,512.3,485.22z"/>
        <path class="st13" d="M383.68,313.88c6.88-6.67,13.74-13.36,20.65-20c1.65-1.58,3.46-2.98,5.2-4.47c1.12,1.17,2.24,2.34,3.37,3.51
		c-1.32,0.7-2.9,1.14-3.91,2.15c-7.72,7.77-15.32,15.65-22.96,23.49C385.24,317,384.46,315.44,383.68,313.88z"/>
        <path class="st18" d="M22.69,511.83c5.61-5.09,11.17-10.24,16.84-15.26c3.09-2.73,6.36-5.26,9.55-7.88
		c0.4,0.38,0.81,0.77,1.21,1.15c0.02,0.76,0.03,1.52,0.05,2.28c-7.14,6.94-14.25,13.92-21.46,20.79c-1.47,1.4-3.33,2.39-5.01,3.57
		C23.48,514.93,23.09,513.38,22.69,511.83z"/>
        <path class="st13" d="M376.42,299.67c5.43-5.79,10.88-11.57,16.3-17.38c1.68-1.79,3.28-3.65,4.92-5.48
		c1.12,1.17,2.24,2.34,3.36,3.51c-7.72,7.33-15.44,14.66-23.17,21.99C377.36,301.43,376.89,300.55,376.42,299.67z"/>
        <path class="st18" d="M43.32,477.1c-3.18,2.6-6.4,5.16-9.53,7.82c-4.15,3.53-8.23,7.14-12.35,10.71c0.06-2.24,0.12-4.47,0.18-6.71
		c2.58-1.79,5.36-3.36,7.7-5.43c4.4-3.9,8.55-8.09,12.8-12.15c0.4,0.76,0.81,1.53,1.21,2.29C43.33,474.79,43.33,475.95,43.32,477.1z
		"/>
        <path class="st17" d="M301.63,192.28c-0.05-1.16-0.1-2.32-0.15-3.48c0.03-0.39,0.07-0.78,0.1-1.17
		c6.56-6.58,13.12-13.16,19.67-19.74c0.88,1.9,1.76,3.81,2.65,5.71c-2.79,2.14-5.68,4.17-8.36,6.45
		C310.84,184.04,306.26,188.19,301.63,192.28z"/>
        <path class="st17" d="M330.57,328.86c-3.08,2.48-6.2,4.93-9.24,7.47c-3.93,3.28-7.79,6.63-11.68,9.95
		c-0.38-1.16-0.76-2.32-1.13-3.48c6.56-6.18,13.12-12.36,19.68-18.54C328.99,325.79,329.78,327.33,330.57,328.86z"/>
        <path class="st13" d="M367.7,282.57c6.16-5.86,12.32-11.71,18.48-17.57c1.18,1.2,2.36,2.4,3.55,3.6
		c-4.84,4.62-9.62,9.3-14.56,13.81c-1.63,1.48-3.68,2.49-5.55,3.71C368.98,284.93,368.34,283.75,367.7,282.57z"/>
        <path class="st17" d="M322.4,313.84c-3.72,3.13-7.45,6.25-11.14,9.41c-2.16,1.85-4.24,3.78-6.35,5.67
		c-0.72-0.79-1.43-1.58-2.15-2.37c0-0.38,0.01-0.75,0.04-1.13c5.44-5.55,10.89-11.11,16.33-16.66
		C320.22,310.45,321.31,312.14,322.4,313.84z"/>
        <path class="st10" d="M378.25,256.96c-5.18,5.19-10.36,10.39-15.54,15.58c-0.85-1.61-1.7-3.22-2.55-4.83
		c4.83-4.81,9.66-9.62,14.5-14.43C375.86,254.51,377.05,255.74,378.25,256.96z"/>
        <path class="st7" d="M290.04,297.53c1.92,3.87,3.85,7.74,5.77,11.61c-3.82,4.02-7.6,8.07-11.46,12.04
		c-9.32,9.61-18.68,19.19-28.03,28.78c-5-0.45-9.99-0.91-14.99-1.36c1.26-1.84,2.28-3.92,3.82-5.5
		C260.07,327.86,275.06,312.71,290.04,297.53z"/>
        <path class="st7" d="M302.8,325.42c-0.03,0.38-0.04,0.75-0.04,1.13c-5.93,5.73-11.94,11.37-17.74,17.22
		c-2.09,2.11-3.66,4.72-5.47,7.11c-5.78-0.07-11.57-0.13-17.35-0.2c0.24-0.72,0.26-1.64,0.74-2.12
		c11.69-11.61,23.43-23.18,35.17-34.75C299.67,317.69,301.23,321.55,302.8,325.42z"/>
        <path class="st16" d="M235.39,510.14c1.43-1.77,2.7-3.69,4.3-5.29c22.78-22.84,45.62-45.63,68.38-68.49
		c1.55-1.56,2.6-3.63,3.88-5.46c2.29-0.47,4.58-0.95,6.87-1.42c0,0,0.04,0.57,0.04,0.57c-0.04,1.02-0.09,2.04-0.13,3.06
		c-1.55,1.04-3.33,1.85-4.63,3.14c-23.31,23.22-46.58,46.49-69.79,69.8c-1.28,1.28-2.01,3.12-2.99,4.7
		C239.35,510.54,237.37,510.34,235.39,510.14z"/>
        <path class="st16" d="M290.04,297.53c-14.97,15.18-29.97,30.33-44.89,45.56c-1.54,1.57-2.56,3.65-3.82,5.5
		c-1.97-0.26-3.93-0.52-5.9-0.78c1.74-2.03,3.37-4.16,5.25-6.07c15.66-15.93,31.37-31.82,47.07-47.72
		C288.51,295.2,289.27,296.36,290.04,297.53z"/>
        <path class="st8" d="M308.52,342.79c0.38,1.16,0.76,2.32,1.13,3.48c0,1.11-0.01,2.22-0.01,3.33c-8.1,0.44-16.21,0.87-24.31,1.31
		c6.53-6.57,13.06-13.14,19.59-19.71C306.12,335.07,307.32,338.93,308.52,342.79z"/>
        <path class="st16" d="M298.1,313.82c-11.73,11.57-23.47,23.14-35.17,34.75c-0.48,0.47-0.51,1.4-0.74,2.12
		c-1.96-0.24-3.91-0.49-5.87-0.73c9.35-9.59,18.71-19.17,28.03-28.78c3.86-3.98,7.64-8.03,11.46-12.04
		C296.57,310.7,297.34,312.26,298.1,313.82z"/>
        <path class="st16" d="M304.92,331.2c-6.53,6.57-13.06,13.14-19.59,19.71c-1.93-0.01-3.86-0.02-5.79-0.03
		c1.81-2.38,3.39-5,5.47-7.11c5.8-5.85,11.81-11.5,17.74-17.22c0.72,0.79,1.43,1.58,2.15,2.37
		C304.91,329.68,304.91,330.44,304.92,331.2z"/>
        <path class="st12" d="M318.74,433.1c0.04-1.02,0.09-2.04,0.13-3.06c6.61-1.07,13.22-2.15,19.82-3.22
		c-0.51,1.21-0.71,2.72-1.57,3.58c-6.39,6.38-12.9,12.63-19.38,18.92C318.08,443.91,318.41,438.5,318.74,433.1z"/>
        <path class="st17" d="M317.75,449.32c6.47-6.29,12.99-12.54,19.38-18.92c0.86-0.86,1.06-2.37,1.57-3.58
		c2.67-0.57,5.35-1.13,8.02-1.69c-1.02,1.55-1.82,3.32-3.09,4.62c-7.37,7.51-14.81,14.96-22.32,22.32c-1.3,1.27-3.08,2.05-4.64,3.06
		c-0.02-1.16-0.04-2.33-0.06-3.49C316.98,450.86,317.37,450.09,317.75,449.32z"/>
        <path class="st7" d="M317.75,449.32c-0.38,0.77-0.76,1.54-1.15,2.31c-1.18,0.98-2.44,1.88-3.52,2.96
		c-17.88,17.85-35.75,35.71-53.59,53.6c-1.2,1.21-2.15,2.67-3.22,4.02c-4.98-0.49-9.97-0.98-14.95-1.46
		c0.98-1.58,1.71-3.41,2.99-4.7c23.21-23.32,46.48-46.58,69.79-69.8c1.3-1.29,3.08-2.11,4.63-3.14
		C318.41,438.5,318.08,443.91,317.75,449.32z"/>
        <path class="st7" d="M313.07,477.1c-0.75,1.54-1.5,3.08-2.24,4.63c-0.88,0.32-2,0.41-2.6,1.01c-9.28,9.18-18.51,18.4-27.68,27.68
		c-0.6,0.6-0.68,1.73-0.99,2.61c-5.78-0.07-11.57-0.15-17.35-0.22c0.76-1.28,1.3-2.79,2.32-3.82c15.5-15.6,31.04-31.15,46.65-46.64
		c1.16-1.15,2.84-1.76,4.28-2.63C314.65,465.52,313.86,471.31,313.07,477.1z"/>
        <path class="st16" d="M315.44,459.73c-1.44,0.86-3.13,1.48-4.28,2.63c-15.6,15.49-31.15,31.04-46.65,46.64
		c-1.02,1.03-1.56,2.53-2.32,3.82c-1.97-0.2-3.94-0.41-5.91-0.61c1.07-1.34,2.02-2.81,3.22-4.02c17.84-17.89,35.71-35.75,53.59-53.6
		c1.08-1.08,2.34-1.97,3.52-2.96c0.02,1.16,0.04,2.33,0.06,3.49C316.26,456.66,315.85,458.19,315.44,459.73z"/>
        <path class="st7" d="M302.68,510.69c-0.36,0.56-0.73,1.12-1.09,1.68c-0.35,0.19-0.7,0.39-1.05,0.58
		c-5.07,0.02-10.14,0.03-15.21,0.05c5.48-6.05,10.85-12.2,16.48-18.1c1.9-1.99,4.45-3.37,6.71-5.03c-1.57,6.16-3.14,12.32-4.7,18.47
		c0,0,0.02,0,0.02,0C303.45,509.12,303.06,509.9,302.68,510.69z"/>
        <path class="st16" d="M308.52,489.86c-2.25,1.66-4.8,3.03-6.71,5.03c-5.63,5.9-11.01,12.05-16.48,18.1
		c-1.93,0.01-3.86,0.02-5.79,0.03c0.32-0.88,0.4-2,0.99-2.61c9.18-9.28,18.4-18.51,27.68-27.68c0.61-0.6,1.72-0.69,2.6-1.01
		c0.02,0.78,0.03,1.56,0.05,2.34c-0.42,1.16-0.84,2.31-1.26,3.47c-0.37,0.78-0.74,1.55-1.11,2.33
		C308.51,489.87,308.52,489.86,308.52,489.86z"/>
        <path class="st17" d="M296.92,221.21c0.38-0.78,0.75-1.56,1.13-2.34C297.67,219.65,297.3,220.43,296.92,221.21z"/>
        <path class="st12"
              d="M300.35,211.82c-0.36,0.42-0.73,0.85-1.09,1.27C299.62,212.67,299.99,212.24,300.35,211.82z"/>
        <path class="st7" d="M308.51,489.87c0.37-0.78,0.74-1.55,1.11-2.33C309.25,488.31,308.88,489.09,308.51,489.87z"/>
        <path class="st12" d="M302.68,510.69c0.38-0.78,0.77-1.56,1.15-2.35C303.45,509.12,303.06,509.9,302.68,510.69z"/>
</g>
</svg>
